<svg width="24" height="25" viewBox="0 0 24 25" fill="none" xmlns="http://www.w3.org/2000/svg">
<g clip-path="url(#clip0_155_93)">
<path d="M14 13.4136C14.0016 13.7616 13.9105 14.104 13.736 14.4061C13.5615 14.7082 13.3097 14.9595 13.0059 15.1346C12.7021 15.3096 12.3571 15.4023 12.0057 15.4033C11.6542 15.4043 11.3087 15.3135 11.004 15.1402C10.6992 14.9668 10.4459 14.717 10.2697 14.4158C10.0934 14.1147 10.0004 13.7729 10 13.4248C9.99963 13.0767 10.0918 12.7347 10.2674 12.4331C10.443 12.1316 10.6956 11.8812 11 11.7071V7.47127C11 7.2086 11.1054 6.95669 11.2929 6.77096C11.4804 6.58523 11.7348 6.48088 12 6.48088C12.2652 6.48088 12.5196 6.58523 12.7071 6.77096C12.8946 6.95669 13 7.2086 13 7.47127V11.7071C13.3031 11.8798 13.5551 12.1283 13.7306 12.4278C13.9061 12.7273 13.999 13.0673 14 13.4136V13.4136ZM20.06 6.02431C21.517 7.57801 22.4845 9.51905 22.8439 11.6094C23.2033 13.6997 22.9389 15.8485 22.0832 17.7922C21.2275 19.7359 19.8177 21.3901 18.0266 22.5518C16.2355 23.7135 14.141 24.3323 12 24.3323C9.85899 24.3323 7.76451 23.7135 5.97342 22.5518C4.18233 21.3901 2.77248 19.7359 1.91677 17.7922C1.06107 15.8485 0.796696 13.6997 1.15608 11.6094C1.51547 9.51905 2.483 7.57801 3.94001 6.02431L3.26801 5.2845C2.86085 5.42644 2.43161 5.49617 2.00001 5.4905C1.73479 5.4905 1.48044 5.38615 1.2929 5.20042C1.10536 5.01469 1.00001 4.76278 1.00001 4.50011C1.00001 4.23745 1.10536 3.98554 1.2929 3.79981C1.48044 3.61407 1.73479 3.50973 2.00001 3.50973C2.78501 3.50973 3.00001 3.2968 3.00001 2.51934C3.00001 2.25668 3.10536 2.00477 3.2929 1.81904C3.48044 1.6333 3.73479 1.52896 4.00001 1.52896C4.26522 1.52896 4.51958 1.6333 4.70711 1.81904C4.89465 2.00477 5.00001 2.25668 5.00001 2.51934C5.00583 3.00129 4.91048 3.47918 4.72001 3.92272L5.42601 4.69918C7.04811 3.49019 8.97831 2.75283 11 2.56985V1.52896C11 1.26629 11.1054 1.01438 11.2929 0.828651C11.4804 0.642918 11.7348 0.538574 12 0.538574C12.2652 0.538574 12.5196 0.642918 12.7071 0.828651C12.8946 1.01438 13 1.26629 13 1.52896V2.56985C15.0216 2.75254 16.9518 3.48956 18.574 4.69819L19.28 3.92173C19.0897 3.4785 18.9943 3.00096 19 2.51934C19 2.25668 19.1054 2.00477 19.2929 1.81904C19.4804 1.6333 19.7348 1.52896 20 1.52896C20.2652 1.52896 20.5196 1.6333 20.7071 1.81904C20.8946 2.00477 21 2.25668 21 2.51934C21 3.2968 21.215 3.50973 22 3.50973C22.2652 3.50973 22.5196 3.61407 22.7071 3.79981C22.8946 3.98554 23 4.23745 23 4.50011C23 4.76278 22.8946 5.01469 22.7071 5.20042C22.5196 5.38615 22.2652 5.4905 22 5.4905C21.5684 5.49617 21.1392 5.42644 20.732 5.2845L20.06 6.02431ZM21 13.4136C21 11.6507 20.4722 9.92733 19.4832 8.46152C18.4943 6.99571 17.0887 5.85325 15.4442 5.17861C13.7996 4.50397 11.99 4.32745 10.2442 4.67138C8.49836 5.01531 6.89472 5.86424 5.63604 7.11081C4.37737 8.35738 3.52021 9.9456 3.17294 11.6746C2.82567 13.4037 3.0039 15.1959 3.68509 16.8246C4.36628 18.4533 5.51983 19.8454 6.99987 20.8248C8.47992 21.8043 10.22 22.327 12 22.327C14.3861 22.3244 16.6738 21.3845 18.361 19.7134C20.0483 18.0424 20.9974 15.7768 21 13.4136V13.4136Z" fill="white"/>
</g>
<defs>
<clipPath id="clip0_155_93">
<rect width="24" height="23.7692" fill="white" transform="translate(0 0.538574)"/>
</clipPath>
</defs>
</svg>
