<svg width="24" height="25" viewBox="0 0 24 25" fill="none" xmlns="http://www.w3.org/2000/svg">
<g clip-path="url(#clip0_155_88)">
<path d="M12 0.538574C9.62663 0.538574 7.30655 1.23559 5.33316 2.54149C3.35977 3.84739 1.8217 5.70351 0.913451 7.87514C0.00519943 10.0468 -0.232441 12.4364 0.230582 14.7418C0.693605 17.0472 1.83649 19.1648 3.51472 20.8269C5.19295 22.489 7.33115 23.6209 9.65892 24.0794C11.9867 24.538 14.3995 24.3027 16.5922 23.4031C18.7849 22.5036 20.6591 20.9803 21.9776 19.0259C23.2962 17.0715 24 14.7737 24 12.4232C23.9966 9.27224 22.7312 6.25132 20.4815 4.02326C18.2318 1.7952 15.1815 0.541982 12 0.538574V0.538574ZM12 22.327C10.0222 22.327 8.08879 21.7462 6.4443 20.6579C4.79981 19.5697 3.51809 18.0229 2.76121 16.2132C2.00433 14.4035 1.8063 12.4122 2.19215 10.491C2.578 8.56989 3.53041 6.80519 4.92894 5.42011C6.32746 4.03504 8.10929 3.09179 10.0491 2.70964C11.9889 2.3275 13.9996 2.52363 15.8268 3.27323C17.6541 4.02283 19.2159 5.29223 20.3147 6.92091C21.4135 8.54959 22 10.4644 22 12.4232C21.9971 15.049 20.9426 17.5664 19.0679 19.4231C17.1931 21.2798 14.6513 22.3242 12 22.327Z" fill="white"/>
<path d="M11.9999 6.48096C11.7347 6.48096 11.4804 6.5853 11.2928 6.77103C11.1053 6.95677 10.9999 7.20867 10.9999 7.47134V11.7547L7.62895 13.8464C7.40351 13.9859 7.24326 14.2084 7.18343 14.4649C7.12361 14.7214 7.16912 14.9909 7.30995 15.2142C7.45078 15.4374 7.67539 15.5961 7.93438 15.6554C8.19337 15.7146 8.46551 15.6696 8.69095 15.5301L12.5309 13.1532C12.676 13.0631 12.7953 12.9377 12.8775 12.7889C12.9596 12.6402 13.0018 12.473 12.9999 12.3034V7.47134C12.9999 7.20867 12.8946 6.95677 12.7071 6.77103C12.5195 6.5853 12.2652 6.48096 11.9999 6.48096Z" fill="white"/>
</g>
<defs>
<clipPath id="clip0_155_88">
<rect width="24" height="23.7692" fill="white" transform="translate(0 0.538574)"/>
</clipPath>
</defs>
</svg>
